# xmcd
#
# Track frame offsets:
# 150
# 19800
# 32094
# 47850
# 63779
# 79090
# 94478
# 110077
# 124804
# 137757
# 155287
#
# Disc length: 2228 seconds
#
#
# Revision: 0
# Processed by: cddbd v1.5PL3 Copyright (c) Steve Scherf et al.
# Submitted via: FreeRIP 2.53 
#
DISCID=9208b20b
DTITLE=Kersh, David - Goodnight Sweetheart
DYEAR=1900
DGENRE=Country
TTITLE0=Braking Hearts and Taking Names
TTITLE1=She Wants To Stay(StayGone)
TTITLE2=Goodnight Sweetheart
TTITLE3=Things Your Daddy Wouldn't Want Us To Do
TTITLE4=Until Now
TTITLE5=Day In, Day Out
TTITLE6=The Love Of A Man
TTITLE7=Boys Will Be Boys
TTITLE8=One Good Reason
TTITLE9=Another You
TTITLE10=Louisiana Coutry Mile
EXTD=
EXTT0=
EXTT1=
EXTT2=
EXTT3=
EXTT4=
EXTT5=
EXTT6=
EXTT7=
EXTT8=
EXTT9=
EXTT10=
PLAYORDER=
